<?xml version="1.0" encoding="utf-8" standalone="no"?>
<!DOCTYPE svg PUBLIC "-//W3C//DTD SVG 1.1//EN"
  "http://www.w3.org/Graphics/SVG/1.1/DTD/svg11.dtd">
<svg xmlns:xlink="http://www.w3.org/1999/xlink" width="624.645313pt" height="394.03625pt" viewBox="0 0 624.645313 394.03625" xmlns="http://www.w3.org/2000/svg" version="1.1">
 <metadata>
  <rdf:RDF xmlns:dc="http://purl.org/dc/elements/1.1/" xmlns:cc="http://creativecommons.org/ns#" xmlns:rdf="http://www.w3.org/1999/02/22-rdf-syntax-ns#">
   <cc:Work>
    <dc:type rdf:resource="http://purl.org/dc/dcmitype/StillImage"/>
    <dc:date>2026-08-20T16:17:51.988564</dc:date>
    <dc:format>image/svg+xml</dc:format>
    <dc:creator>
     <cc:Agent>
      <dc:title>Matplotlib v3.10.9, https://matplotlib.org/</dc:title>
     </cc:Agent>
    </dc:creator>
   </cc:Work>
  </rdf:RDF>
 </metadata>
 <defs>
  <style type="text/css">*{stroke-linejoin: round; stroke-linecap: butt}</style>
 </defs>
 <g id="figure_1">
  <g id="patch_1">
   <path d="M 0 394.03625 
L 624.645313 394.03625 
L 624.645313 0 
L 0 0 
z
" style="fill: #ffffff"/>
  </g>
  <g id="axes_1">
   <g id="patch_2">
    <path d="M 59.445312 356.48 
L 617.445312 356.48 
L 617.445312 23.84 
L 59.445312 23.84 
z
" style="fill: #ffffff"/>
   </g>
   <g id="matplotlib.axis_1">
    <g id="xtick_1">
     <g id="line2d_1">
      <path d="M 84.859196 356.48 
L 84.859196 23.84 
" clip-path="url(#p0a2f3f7af5)" style="fill: none; stroke: #b0b0b0; stroke-width: 0.8; stroke-linecap: square"/>
     </g>
     <g id="line2d_2">
      <defs>
       <path id="m279ef9e671" d="M 0 0 
L 0 3.5 
" style="stroke: #000000; stroke-width: 0.8"/>
      </defs>
      <g>
       <use xlink:href="#m279ef9e671" x="84.859196" y="356.48" style="stroke: #000000; stroke-width: 0.8"/>
      </g>
     </g>
     <g id="text_1">
      <!-- 0.0 -->
      <g transform="translate(76.907634 371.078437) scale(0.1 -0.1)">
       <defs>
        <path id="DejaVuSans-30" d="M 2034 4250 
Q 1547 4250 1301 3770 
Q 1056 3291 1056 2328 
Q 1056 1369 1301 889 
Q 1547 409 2034 409 
Q 2525 409 2770 889 
Q 3016 1369 3016 2328 
Q 3016 3291 2770 3770 
Q 2525 4250 2034 4250 
z
M 2034 4750 
Q 2819 4750 3233 4129 
Q 3647 3509 3647 2328 
Q 3647 1150 3233 529 
Q 2819 -91 2034 -91 
Q 1250 -91 836 529 
Q 422 1150 422 2328 
Q 422 3509 836 4129 
Q 1250 4750 2034 4750 
z
" transform="scale(0.015625)"/>
        <path id="DejaVuSans-2e" d="M 684 794 
L 1344 794 
L 1344 0 
L 684 0 
L 684 794 
z
" transform="scale(0.015625)"/>
       </defs>
       <use xlink:href="#DejaVuSans-30"/>
       <use xlink:href="#DejaVuSans-2e" transform="translate(63.623047 0)"/>
       <use xlink:href="#DejaVuSans-30" transform="translate(95.410156 0)"/>
      </g>
     </g>
    </g>
    <g id="xtick_2">
     <g id="line2d_3">
      <path d="M 186.306716 356.48 
L 186.306716 23.84 
" clip-path="url(#p0a2f3f7af5)" style="fill: none; stroke: #b0b0b0; stroke-width: 0.8; stroke-linecap: square"/>
     </g>
     <g id="line2d_4">
      <g>
       <use xlink:href="#m279ef9e671" x="186.306716" y="356.48" style="stroke: #000000; stroke-width: 0.8"/>
      </g>
     </g>
     <g id="text_2">
      <!-- 0.2 -->
      <g transform="translate(178.355153 371.078437) scale(0.1 -0.1)">
       <defs>
        <path id="DejaVuSans-32" d="M 1228 531 
L 3431 531 
L 3431 0 
L 469 0 
L 469 531 
Q 828 903 1448 1529 
Q 2069 2156 2228 2338 
Q 2531 2678 2651 2914 
Q 2772 3150 2772 3378 
Q 2772 3750 2511 3984 
Q 2250 4219 1831 4219 
Q 1534 4219 1204 4116 
Q 875 4013 500 3803 
L 500 4441 
Q 881 4594 1212 4672 
Q 1544 4750 1819 4750 
Q 2544 4750 2975 4387 
Q 3406 4025 3406 3419 
Q 3406 3131 3298 2873 
Q 3191 2616 2906 2266 
Q 2828 2175 2409 1742 
Q 1991 1309 1228 531 
z
" transform="scale(0.015625)"/>
       </defs>
       <use xlink:href="#DejaVuSans-30"/>
       <use xlink:href="#DejaVuSans-2e" transform="translate(63.623047 0)"/>
       <use xlink:href="#DejaVuSans-32" transform="translate(95.410156 0)"/>
      </g>
     </g>
    </g>
    <g id="xtick_3">
     <g id="line2d_5">
      <path d="M 287.754235 356.48 
L 287.754235 23.84 
" clip-path="url(#p0a2f3f7af5)" style="fill: none; stroke: #b0b0b0; stroke-width: 0.8; stroke-linecap: square"/>
     </g>
     <g id="line2d_6">
      <g>
       <use xlink:href="#m279ef9e671" x="287.754235" y="356.48" style="stroke: #000000; stroke-width: 0.8"/>
      </g>
     </g>
     <g id="text_3">
      <!-- 0.4 -->
      <g transform="translate(279.802672 371.078437) scale(0.1 -0.1)">
       <defs>
        <path id="DejaVuSans-34" d="M 2419 4116 
L 825 1625 
L 2419 1625 
L 2419 4116 
z
M 2253 4666 
L 3047 4666 
L 3047 1625 
L 3713 1625 
L 3713 1100 
L 3047 1100 
L 3047 0 
L 2419 0 
L 2419 1100 
L 313 1100 
L 313 1709 
L 2253 4666 
z
" transform="scale(0.015625)"/>
       </defs>
       <use xlink:href="#DejaVuSans-30"/>
       <use xlink:href="#DejaVuSans-2e" transform="translate(63.623047 0)"/>
       <use xlink:href="#DejaVuSans-34" transform="translate(95.410156 0)"/>
      </g>
     </g>
    </g>
    <g id="xtick_4">
     <g id="line2d_7">
      <path d="M 389.201754 356.48 
L 389.201754 23.84 
" clip-path="url(#p0a2f3f7af5)" style="fill: none; stroke: #b0b0b0; stroke-width: 0.8; stroke-linecap: square"/>
     </g>
     <g id="line2d_8">
      <g>
       <use xlink:href="#m279ef9e671" x="389.201754" y="356.48" style="stroke: #000000; stroke-width: 0.8"/>
      </g>
     </g>
     <g id="text_4">
      <!-- 0.6 -->
      <g transform="translate(381.250191 371.078437) scale(0.1 -0.1)">
       <defs>
        <path id="DejaVuSans-36" d="M 2113 2584 
Q 1688 2584 1439 2293 
Q 1191 2003 1191 1497 
Q 1191 994 1439 701 
Q 1688 409 2113 409 
Q 2538 409 2786 701 
Q 3034 994 3034 1497 
Q 3034 2003 2786 2293 
Q 2538 2584 2113 2584 
z
M 3366 4563 
L 3366 3988 
Q 3128 4100 2886 4159 
Q 2644 4219 2406 4219 
Q 1781 4219 1451 3797 
Q 1122 3375 1075 2522 
Q 1259 2794 1537 2939 
Q 1816 3084 2150 3084 
Q 2853 3084 3261 2657 
Q 3669 2231 3669 1497 
Q 3669 778 3244 343 
Q 2819 -91 2113 -91 
Q 1303 -91 875 529 
Q 447 1150 447 2328 
Q 447 3434 972 4092 
Q 1497 4750 2381 4750 
Q 2619 4750 2861 4703 
Q 3103 4656 3366 4563 
z
" transform="scale(0.015625)"/>
       </defs>
       <use xlink:href="#DejaVuSans-30"/>
       <use xlink:href="#DejaVuSans-2e" transform="translate(63.623047 0)"/>
       <use xlink:href="#DejaVuSans-36" transform="translate(95.410156 0)"/>
      </g>
     </g>
    </g>
    <g id="xtick_5">
     <g id="line2d_9">
      <path d="M 490.649273 356.48 
L 490.649273 23.84 
" clip-path="url(#p0a2f3f7af5)" style="fill: none; stroke: #b0b0b0; stroke-width: 0.8; stroke-linecap: square"/>
     </g>
     <g id="line2d_10">
      <g>
       <use xlink:href="#m279ef9e671" x="490.649273" y="356.48" style="stroke: #000000; stroke-width: 0.8"/>
      </g>
     </g>
     <g id="text_5">
      <!-- 0.8 -->
      <g transform="translate(482.69771 371.078437) scale(0.1 -0.1)">
       <defs>
        <path id="DejaVuSans-38" d="M 2034 2216 
Q 1584 2216 1326 1975 
Q 1069 1734 1069 1313 
Q 1069 891 1326 650 
Q 1584 409 2034 409 
Q 2484 409 2743 651 
Q 3003 894 3003 1313 
Q 3003 1734 2745 1975 
Q 2488 2216 2034 2216 
z
M 1403 2484 
Q 997 2584 770 2862 
Q 544 3141 544 3541 
Q 544 4100 942 4425 
Q 1341 4750 2034 4750 
Q 2731 4750 3128 4425 
Q 3525 4100 3525 3541 
Q 3525 3141 3298 2862 
Q 3072 2584 2669 2484 
Q 3125 2378 3379 2068 
Q 3634 1759 3634 1313 
Q 3634 634 3220 271 
Q 2806 -91 2034 -91 
Q 1263 -91 848 271 
Q 434 634 434 1313 
Q 434 1759 690 2068 
Q 947 2378 1403 2484 
z
M 1172 3481 
Q 1172 3119 1398 2916 
Q 1625 2713 2034 2713 
Q 2441 2713 2670 2916 
Q 2900 3119 2900 3481 
Q 2900 3844 2670 4047 
Q 2441 4250 2034 4250 
Q 1625 4250 1398 4047 
Q 1172 3844 1172 3481 
z
" transform="scale(0.015625)"/>
       </defs>
       <use xlink:href="#DejaVuSans-30"/>
       <use xlink:href="#DejaVuSans-2e" transform="translate(63.623047 0)"/>
       <use xlink:href="#DejaVuSans-38" transform="translate(95.410156 0)"/>
      </g>
     </g>
    </g>
    <g id="xtick_6">
     <g id="line2d_11">
      <path d="M 592.096792 356.48 
L 592.096792 23.84 
" clip-path="url(#p0a2f3f7af5)" style="fill: none; stroke: #b0b0b0; stroke-width: 0.8; stroke-linecap: square"/>
     </g>
     <g id="line2d_12">
      <g>
       <use xlink:href="#m279ef9e671" x="592.096792" y="356.48" style="stroke: #000000; stroke-width: 0.8"/>
      </g>
     </g>
     <g id="text_6">
      <!-- 1.0 -->
      <g transform="translate(584.14523 371.078437) scale(0.1 -0.1)">
       <defs>
        <path id="DejaVuSans-31" d="M 794 531 
L 1825 531 
L 1825 4091 
L 703 3866 
L 703 4441 
L 1819 4666 
L 2450 4666 
L 2450 531 
L 3481 531 
L 3481 0 
L 794 0 
L 794 531 
z
" transform="scale(0.015625)"/>
       </defs>
       <use xlink:href="#DejaVuSans-31"/>
       <use xlink:href="#DejaVuSans-2e" transform="translate(63.623047 0)"/>
       <use xlink:href="#DejaVuSans-30" transform="translate(95.410156 0)"/>
      </g>
     </g>
    </g>
    <g id="text_7">
     <!-- x/c -->
     <g transform="translate(331.052344 384.756562) scale(0.1 -0.1)">
      <defs>
       <path id="DejaVuSans-78" d="M 3513 3500 
L 2247 1797 
L 3578 0 
L 2900 0 
L 1881 1375 
L 863 0 
L 184 0 
L 1544 1831 
L 300 3500 
L 978 3500 
L 1906 2253 
L 2834 3500 
L 3513 3500 
z
" transform="scale(0.015625)"/>
       <path id="DejaVuSans-2f" d="M 1625 4666 
L 2156 4666 
L 531 -594 
L 0 -594 
L 1625 4666 
z
" transform="scale(0.015625)"/>
       <path id="DejaVuSans-63" d="M 3122 3366 
L 3122 2828 
Q 2878 2963 2633 3030 
Q 2388 3097 2138 3097 
Q 1578 3097 1268 2742 
Q 959 2388 959 1747 
Q 959 1106 1268 751 
Q 1578 397 2138 397 
Q 2388 397 2633 464 
Q 2878 531 3122 666 
L 3122 134 
Q 2881 22 2623 -34 
Q 2366 -91 2075 -91 
Q 1284 -91 818 406 
Q 353 903 353 1747 
Q 353 2603 823 3093 
Q 1294 3584 2113 3584 
Q 2378 3584 2631 3529 
Q 2884 3475 3122 3366 
z
" transform="scale(0.015625)"/>
      </defs>
      <use xlink:href="#DejaVuSans-78"/>
      <use xlink:href="#DejaVuSans-2f" transform="translate(59.179688 0)"/>
      <use xlink:href="#DejaVuSans-63" transform="translate(92.871094 0)"/>
     </g>
    </g>
   </g>
   <g id="matplotlib.axis_2">
    <g id="ytick_1">
     <g id="line2d_13">
      <path d="M 59.445312 33.538765 
L 617.445312 33.538765 
" clip-path="url(#p0a2f3f7af5)" style="fill: none; stroke: #b0b0b0; stroke-width: 0.8; stroke-linecap: square"/>
     </g>
     <g id="line2d_14">
      <defs>
       <path id="m33094aa74d" d="M 0 0 
L -3.5 0 
" style="stroke: #000000; stroke-width: 0.8"/>
      </defs>
      <g>
       <use xlink:href="#m33094aa74d" x="59.445312" y="33.538765" style="stroke: #000000; stroke-width: 0.8"/>
      </g>
     </g>
     <g id="text_8">
      <!-- −1.00 -->
      <g transform="translate(21.8 37.337984) scale(0.1 -0.1)">
       <defs>
        <path id="DejaVuSans-2212" d="M 678 2272 
L 4684 2272 
L 4684 1741 
L 678 1741 
L 678 2272 
z
" transform="scale(0.015625)"/>
       </defs>
       <use xlink:href="#DejaVuSans-2212"/>
       <use xlink:href="#DejaVuSans-31" transform="translate(83.789062 0)"/>
       <use xlink:href="#DejaVuSans-2e" transform="translate(147.412109 0)"/>
       <use xlink:href="#DejaVuSans-30" transform="translate(179.199219 0)"/>
       <use xlink:href="#DejaVuSans-30" transform="translate(242.822266 0)"/>
      </g>
     </g>
    </g>
    <g id="ytick_2">
     <g id="line2d_15">
      <path d="M 59.445312 72.136138 
L 617.445312 72.136138 
" clip-path="url(#p0a2f3f7af5)" style="fill: none; stroke: #b0b0b0; stroke-width: 0.8; stroke-linecap: square"/>
     </g>
     <g id="line2d_16">
      <g>
       <use xlink:href="#m33094aa74d" x="59.445312" y="72.136138" style="stroke: #000000; stroke-width: 0.8"/>
      </g>
     </g>
     <g id="text_9">
      <!-- −0.75 -->
      <g transform="translate(21.8 75.935357) scale(0.1 -0.1)">
       <defs>
        <path id="DejaVuSans-37" d="M 525 4666 
L 3525 4666 
L 3525 4397 
L 1831 0 
L 1172 0 
L 2766 4134 
L 525 4134 
L 525 4666 
z
" transform="scale(0.015625)"/>
        <path id="DejaVuSans-35" d="M 691 4666 
L 3169 4666 
L 3169 4134 
L 1269 4134 
L 1269 2991 
Q 1406 3038 1543 3061 
Q 1681 3084 1819 3084 
Q 2600 3084 3056 2656 
Q 3513 2228 3513 1497 
Q 3513 744 3044 326 
Q 2575 -91 1722 -91 
Q 1428 -91 1123 -41 
Q 819 9 494 109 
L 494 744 
Q 775 591 1075 516 
Q 1375 441 1709 441 
Q 2250 441 2565 725 
Q 2881 1009 2881 1497 
Q 2881 1984 2565 2268 
Q 2250 2553 1709 2553 
Q 1456 2553 1204 2497 
Q 953 2441 691 2322 
L 691 4666 
z
" transform="scale(0.015625)"/>
       </defs>
       <use xlink:href="#DejaVuSans-2212"/>
       <use xlink:href="#DejaVuSans-30" transform="translate(83.789062 0)"/>
       <use xlink:href="#DejaVuSans-2e" transform="translate(147.412109 0)"/>
       <use xlink:href="#DejaVuSans-37" transform="translate(179.199219 0)"/>
       <use xlink:href="#DejaVuSans-35" transform="translate(242.822266 0)"/>
      </g>
     </g>
    </g>
    <g id="ytick_3">
     <g id="line2d_17">
      <path d="M 59.445312 110.733511 
L 617.445312 110.733511 
" clip-path="url(#p0a2f3f7af5)" style="fill: none; stroke: #b0b0b0; stroke-width: 0.8; stroke-linecap: square"/>
     </g>
     <g id="line2d_18">
      <g>
       <use xlink:href="#m33094aa74d" x="59.445312" y="110.733511" style="stroke: #000000; stroke-width: 0.8"/>
      </g>
     </g>
     <g id="text_10">
      <!-- −0.50 -->
      <g transform="translate(21.8 114.53273) scale(0.1 -0.1)">
       <use xlink:href="#DejaVuSans-2212"/>
       <use xlink:href="#DejaVuSans-30" transform="translate(83.789062 0)"/>
       <use xlink:href="#DejaVuSans-2e" transform="translate(147.412109 0)"/>
       <use xlink:href="#DejaVuSans-35" transform="translate(179.199219 0)"/>
       <use xlink:href="#DejaVuSans-30" transform="translate(242.822266 0)"/>
      </g>
     </g>
    </g>
    <g id="ytick_4">
     <g id="line2d_19">
      <path d="M 59.445312 149.330884 
L 617.445312 149.330884 
" clip-path="url(#p0a2f3f7af5)" style="fill: none; stroke: #b0b0b0; stroke-width: 0.8; stroke-linecap: square"/>
     </g>
     <g id="line2d_20">
      <g>
       <use xlink:href="#m33094aa74d" x="59.445312" y="149.330884" style="stroke: #000000; stroke-width: 0.8"/>
      </g>
     </g>
     <g id="text_11">
      <!-- −0.25 -->
      <g transform="translate(21.8 153.130103) scale(0.1 -0.1)">
       <use xlink:href="#DejaVuSans-2212"/>
       <use xlink:href="#DejaVuSans-30" transform="translate(83.789062 0)"/>
       <use xlink:href="#DejaVuSans-2e" transform="translate(147.412109 0)"/>
       <use xlink:href="#DejaVuSans-32" transform="translate(179.199219 0)"/>
       <use xlink:href="#DejaVuSans-35" transform="translate(242.822266 0)"/>
      </g>
     </g>
    </g>
    <g id="ytick_5">
     <g id="line2d_21">
      <path d="M 59.445312 187.928257 
L 617.445312 187.928257 
" clip-path="url(#p0a2f3f7af5)" style="fill: none; stroke: #b0b0b0; stroke-width: 0.8; stroke-linecap: square"/>
     </g>
     <g id="line2d_22">
      <g>
       <use xlink:href="#m33094aa74d" x="59.445312" y="187.928257" style="stroke: #000000; stroke-width: 0.8"/>
      </g>
     </g>
     <g id="text_12">
      <!-- 0.00 -->
      <g transform="translate(30.179688 191.727476) scale(0.1 -0.1)">
       <use xlink:href="#DejaVuSans-30"/>
       <use xlink:href="#DejaVuSans-2e" transform="translate(63.623047 0)"/>
       <use xlink:href="#DejaVuSans-30" transform="translate(95.410156 0)"/>
       <use xlink:href="#DejaVuSans-30" transform="translate(159.033203 0)"/>
      </g>
     </g>
    </g>
    <g id="ytick_6">
     <g id="line2d_23">
      <path d="M 59.445312 226.52563 
L 617.445312 226.52563 
" clip-path="url(#p0a2f3f7af5)" style="fill: none; stroke: #b0b0b0; stroke-width: 0.8; stroke-linecap: square"/>
     </g>
     <g id="line2d_24">
      <g>
       <use xlink:href="#m33094aa74d" x="59.445312" y="226.52563" style="stroke: #000000; stroke-width: 0.8"/>
      </g>
     </g>
     <g id="text_13">
      <!-- 0.25 -->
      <g transform="translate(30.179688 230.324849) scale(0.1 -0.1)">
       <use xlink:href="#DejaVuSans-30"/>
       <use xlink:href="#DejaVuSans-2e" transform="translate(63.623047 0)"/>
       <use xlink:href="#DejaVuSans-32" transform="translate(95.410156 0)"/>
       <use xlink:href="#DejaVuSans-35" transform="translate(159.033203 0)"/>
      </g>
     </g>
    </g>
    <g id="ytick_7">
     <g id="line2d_25">
      <path d="M 59.445312 265.123003 
L 617.445312 265.123003 
" clip-path="url(#p0a2f3f7af5)" style="fill: none; stroke: #b0b0b0; stroke-width: 0.8; stroke-linecap: square"/>
     </g>
     <g id="line2d_26">
      <g>
       <use xlink:href="#m33094aa74d" x="59.445312" y="265.123003" style="stroke: #000000; stroke-width: 0.8"/>
      </g>
     </g>
     <g id="text_14">
      <!-- 0.50 -->
      <g transform="translate(30.179688 268.922222) scale(0.1 -0.1)">
       <use xlink:href="#DejaVuSans-30"/>
       <use xlink:href="#DejaVuSans-2e" transform="translate(63.623047 0)"/>
       <use xlink:href="#DejaVuSans-35" transform="translate(95.410156 0)"/>
       <use xlink:href="#DejaVuSans-30" transform="translate(159.033203 0)"/>
      </g>
     </g>
    </g>
    <g id="ytick_8">
     <g id="line2d_27">
      <path d="M 59.445312 303.720376 
L 617.445312 303.720376 
" clip-path="url(#p0a2f3f7af5)" style="fill: none; stroke: #b0b0b0; stroke-width: 0.8; stroke-linecap: square"/>
     </g>
     <g id="line2d_28">
      <g>
       <use xlink:href="#m33094aa74d" x="59.445312" y="303.720376" style="stroke: #000000; stroke-width: 0.8"/>
      </g>
     </g>
     <g id="text_15">
      <!-- 0.75 -->
      <g transform="translate(30.179688 307.519595) scale(0.1 -0.1)">
       <use xlink:href="#DejaVuSans-30"/>
       <use xlink:href="#DejaVuSans-2e" transform="translate(63.623047 0)"/>
       <use xlink:href="#DejaVuSans-37" transform="translate(95.410156 0)"/>
       <use xlink:href="#DejaVuSans-35" transform="translate(159.033203 0)"/>
      </g>
     </g>
    </g>
    <g id="ytick_9">
     <g id="line2d_29">
      <path d="M 59.445312 342.317749 
L 617.445312 342.317749 
" clip-path="url(#p0a2f3f7af5)" style="fill: none; stroke: #b0b0b0; stroke-width: 0.8; stroke-linecap: square"/>
     </g>
     <g id="line2d_30">
      <g>
       <use xlink:href="#m33094aa74d" x="59.445312" y="342.317749" style="stroke: #000000; stroke-width: 0.8"/>
      </g>
     </g>
     <g id="text_16">
      <!-- 1.00 -->
      <g transform="translate(30.179688 346.116968) scale(0.1 -0.1)">
       <use xlink:href="#DejaVuSans-31"/>
       <use xlink:href="#DejaVuSans-2e" transform="translate(63.623047 0)"/>
       <use xlink:href="#DejaVuSans-30" transform="translate(95.410156 0)"/>
       <use xlink:href="#DejaVuSans-30" transform="translate(159.033203 0)"/>
      </g>
     </g>
    </g>
    <g id="text_17">
     <!-- $C_p$ -->
     <g transform="translate(14.7 196.01) rotate(-90) scale(0.1 -0.1)">
      <defs>
       <path id="DejaVuSans-Oblique-43" d="M 4447 4306 
L 4319 3641 
Q 4019 3944 3683 4091 
Q 3347 4238 2956 4238 
Q 2422 4238 2017 3981 
Q 1613 3725 1319 3200 
Q 1131 2863 1032 2486 
Q 934 2109 934 1728 
Q 934 1091 1264 756 
Q 1594 422 2222 422 
Q 2656 422 3056 561 
Q 3456 700 3834 978 
L 3688 231 
Q 3316 72 2936 -9 
Q 2556 -91 2175 -91 
Q 1278 -91 773 396 
Q 269 884 269 1753 
Q 269 2309 461 2846 
Q 653 3384 1013 3828 
Q 1394 4300 1883 4525 
Q 2372 4750 3022 4750 
Q 3422 4750 3780 4639 
Q 4138 4528 4447 4306 
z
" transform="scale(0.015625)"/>
       <path id="DejaVuSans-Oblique-70" d="M 3175 2156 
Q 3175 2616 2975 2859 
Q 2775 3103 2400 3103 
Q 2144 3103 1911 2972 
Q 1678 2841 1497 2591 
Q 1319 2344 1212 1994 
Q 1106 1644 1106 1300 
Q 1106 863 1306 627 
Q 1506 391 1875 391 
Q 2147 391 2380 519 
Q 2613 647 2778 891 
Q 2956 1147 3065 1494 
Q 3175 1841 3175 2156 
z
M 1394 2969 
Q 1625 3272 1939 3428 
Q 2253 3584 2638 3584 
Q 3175 3584 3472 3232 
Q 3769 2881 3769 2247 
Q 3769 1728 3584 1258 
Q 3400 788 3053 416 
Q 2822 169 2531 39 
Q 2241 -91 1919 -91 
Q 1547 -91 1294 64 
Q 1041 219 916 525 
L 556 -1331 
L -19 -1331 
L 922 3500 
L 1497 3500 
L 1394 2969 
z
" transform="scale(0.015625)"/>
      </defs>
      <use xlink:href="#DejaVuSans-Oblique-43" transform="translate(0 0.78125)"/>
      <use xlink:href="#DejaVuSans-Oblique-70" transform="translate(69.824219 -15.625) scale(0.7)"/>
     </g>
    </g>
   </g>
   <g id="line2d_31">
    <path d="M 84.808949 283.206522 
L 84.907153 213.66605 
L 85.403134 153.037503 
L 86.29734 112.705425 
L 87.589609 88.849697 
L 89.279156 75.122641 
L 91.364566 67.038541 
L 93.843784 61.99947 
L 96.714103 58.58945 
L 99.972154 56.048859 
L 103.613895 53.972185 
L 107.634602 52.145496 
L 112.028859 50.459889 
L 116.790554 48.864892 
L 121.91287 47.342895 
L 127.388286 45.894823 
L 133.208575 44.531927 
L 139.36481 43.271 
L 145.847372 42.131537 
L 152.645957 41.134019 
L 159.749597 40.29888 
L 167.146674 39.645883 
L 174.824946 39.193754 
L 182.771573 38.96 
L 190.973149 38.960846 
L 199.415732 39.211282 
L 208.084887 39.725214 
L 216.965721 40.515731 
L 226.042928 41.59554 
L 235.300832 42.977649 
L 244.723434 44.676496 
L 254.294457 46.709902 
L 263.99739 49.102836 
L 273.815541 51.895688 
L 283.732077 55.167315 
L 293.730071 59.153155 
L 303.754695 63.895221 
L 313.778027 68.341105 
L 323.822912 72.27325 
L 333.885693 75.964348 
L 343.950255 79.532652 
L 354.000549 83.032936 
L 364.020621 86.495849 
L 373.994637 89.940401 
L 383.906909 93.379186 
L 393.741917 96.820932 
L 403.484334 100.271906 
L 413.119047 103.736735 
L 422.631179 107.218922 
L 432.006111 110.721171 
L 441.229497 114.245607 
L 450.287291 117.793919 
L 459.165759 121.36745 
L 467.851501 124.967258 
L 476.331467 128.594157 
L 484.592976 132.248735 
L 492.623727 135.93137 
L 500.411824 139.642227 
L 507.945781 143.381263 
L 515.214541 147.148217 
L 522.207489 150.942594 
L 528.914463 154.763645 
L 535.325765 158.610325 
L 541.432171 162.481229 
L 547.224943 166.374495 
L 552.695831 170.287642 
L 557.837086 174.217336 
L 562.641462 178.159046 
L 567.10222 182.106582 
L 571.213136 186.051576 
L 574.968501 189.983139 
L 578.363121 193.888522 
L 581.392325 197.757036 
L 584.051957 201.593199 
L 586.338385 205.453711 
L 588.248496 209.541127 
L 589.779695 214.416376 
L 590.929908 221.371088 
L 591.697581 232.056911 
L 592.081676 245.532464 
" clip-path="url(#p0a2f3f7af5)" style="fill: none; stroke: #0000ff; stroke-width: 1.5; stroke-linecap: square"/>
    <defs>
     <path id="me54fbf6581" d="M 0 1.5 
C 0.397805 1.5 0.77937 1.341951 1.06066 1.06066 
C 1.341951 0.77937 1.5 0.397805 1.5 0 
C 1.5 -0.397805 1.341951 -0.77937 1.06066 -1.06066 
C 0.77937 -1.341951 0.397805 -1.5 0 -1.5 
C -0.397805 -1.5 -0.77937 -1.341951 -1.06066 -1.06066 
C -1.341951 -0.77937 -1.5 -0.397805 -1.5 0 
C -1.5 0.397805 -1.341951 0.77937 -1.06066 1.06066 
C -0.77937 1.341951 -0.397805 1.5 0 1.5 
z
" style="stroke: #0000ff"/>
    </defs>
    <g clip-path="url(#p0a2f3f7af5)">
     <use xlink:href="#me54fbf6581" x="84.808949" y="283.206522" style="fill: #0000ff; stroke: #0000ff"/>
     <use xlink:href="#me54fbf6581" x="84.907153" y="213.66605" style="fill: #0000ff; stroke: #0000ff"/>
     <use xlink:href="#me54fbf6581" x="85.403134" y="153.037503" style="fill: #0000ff; stroke: #0000ff"/>
     <use xlink:href="#me54fbf6581" x="86.29734" y="112.705425" style="fill: #0000ff; stroke: #0000ff"/>
     <use xlink:href="#me54fbf6581" x="87.589609" y="88.849697" style="fill: #0000ff; stroke: #0000ff"/>
     <use xlink:href="#me54fbf6581" x="89.279156" y="75.122641" style="fill: #0000ff; stroke: #0000ff"/>
     <use xlink:href="#me54fbf6581" x="91.364566" y="67.038541" style="fill: #0000ff; stroke: #0000ff"/>
     <use xlink:href="#me54fbf6581" x="93.843784" y="61.99947" style="fill: #0000ff; stroke: #0000ff"/>
     <use xlink:href="#me54fbf6581" x="96.714103" y="58.58945" style="fill: #0000ff; stroke: #0000ff"/>
     <use xlink:href="#me54fbf6581" x="99.972154" y="56.048859" style="fill: #0000ff; stroke: #0000ff"/>
     <use xlink:href="#me54fbf6581" x="103.613895" y="53.972185" style="fill: #0000ff; stroke: #0000ff"/>
     <use xlink:href="#me54fbf6581" x="107.634602" y="52.145496" style="fill: #0000ff; stroke: #0000ff"/>
     <use xlink:href="#me54fbf6581" x="112.028859" y="50.459889" style="fill: #0000ff; stroke: #0000ff"/>
     <use xlink:href="#me54fbf6581" x="116.790554" y="48.864892" style="fill: #0000ff; stroke: #0000ff"/>
     <use xlink:href="#me54fbf6581" x="121.91287" y="47.342895" style="fill: #0000ff; stroke: #0000ff"/>
     <use xlink:href="#me54fbf6581" x="127.388286" y="45.894823" style="fill: #0000ff; stroke: #0000ff"/>
     <use xlink:href="#me54fbf6581" x="133.208575" y="44.531927" style="fill: #0000ff; stroke: #0000ff"/>
     <use xlink:href="#me54fbf6581" x="139.36481" y="43.271" style="fill: #0000ff; stroke: #0000ff"/>
     <use xlink:href="#me54fbf6581" x="145.847372" y="42.131537" style="fill: #0000ff; stroke: #0000ff"/>
     <use xlink:href="#me54fbf6581" x="152.645957" y="41.134019" style="fill: #0000ff; stroke: #0000ff"/>
     <use xlink:href="#me54fbf6581" x="159.749597" y="40.29888" style="fill: #0000ff; stroke: #0000ff"/>
     <use xlink:href="#me54fbf6581" x="167.146674" y="39.645883" style="fill: #0000ff; stroke: #0000ff"/>
     <use xlink:href="#me54fbf6581" x="174.824946" y="39.193754" style="fill: #0000ff; stroke: #0000ff"/>
     <use xlink:href="#me54fbf6581" x="182.771573" y="38.96" style="fill: #0000ff; stroke: #0000ff"/>
     <use xlink:href="#me54fbf6581" x="190.973149" y="38.960846" style="fill: #0000ff; stroke: #0000ff"/>
     <use xlink:href="#me54fbf6581" x="199.415732" y="39.211282" style="fill: #0000ff; stroke: #0000ff"/>
     <use xlink:href="#me54fbf6581" x="208.084887" y="39.725214" style="fill: #0000ff; stroke: #0000ff"/>
     <use xlink:href="#me54fbf6581" x="216.965721" y="40.515731" style="fill: #0000ff; stroke: #0000ff"/>
     <use xlink:href="#me54fbf6581" x="226.042928" y="41.59554" style="fill: #0000ff; stroke: #0000ff"/>
     <use xlink:href="#me54fbf6581" x="235.300832" y="42.977649" style="fill: #0000ff; stroke: #0000ff"/>
     <use xlink:href="#me54fbf6581" x="244.723434" y="44.676496" style="fill: #0000ff; stroke: #0000ff"/>
     <use xlink:href="#me54fbf6581" x="254.294457" y="46.709902" style="fill: #0000ff; stroke: #0000ff"/>
     <use xlink:href="#me54fbf6581" x="263.99739" y="49.102836" style="fill: #0000ff; stroke: #0000ff"/>
     <use xlink:href="#me54fbf6581" x="273.815541" y="51.895688" style="fill: #0000ff; stroke: #0000ff"/>
     <use xlink:href="#me54fbf6581" x="283.732077" y="55.167315" style="fill: #0000ff; stroke: #0000ff"/>
     <use xlink:href="#me54fbf6581" x="293.730071" y="59.153155" style="fill: #0000ff; stroke: #0000ff"/>
     <use xlink:href="#me54fbf6581" x="303.754695" y="63.895221" style="fill: #0000ff; stroke: #0000ff"/>
     <use xlink:href="#me54fbf6581" x="313.778027" y="68.341105" style="fill: #0000ff; stroke: #0000ff"/>
     <use xlink:href="#me54fbf6581" x="323.822912" y="72.27325" style="fill: #0000ff; stroke: #0000ff"/>
     <use xlink:href="#me54fbf6581" x="333.885693" y="75.964348" style="fill: #0000ff; stroke: #0000ff"/>
     <use xlink:href="#me54fbf6581" x="343.950255" y="79.532652" style="fill: #0000ff; stroke: #0000ff"/>
     <use xlink:href="#me54fbf6581" x="354.000549" y="83.032936" style="fill: #0000ff; stroke: #0000ff"/>
     <use xlink:href="#me54fbf6581" x="364.020621" y="86.495849" style="fill: #0000ff; stroke: #0000ff"/>
     <use xlink:href="#me54fbf6581" x="373.994637" y="89.940401" style="fill: #0000ff; stroke: #0000ff"/>
     <use xlink:href="#me54fbf6581" x="383.906909" y="93.379186" style="fill: #0000ff; stroke: #0000ff"/>
     <use xlink:href="#me54fbf6581" x="393.741917" y="96.820932" style="fill: #0000ff; stroke: #0000ff"/>
     <use xlink:href="#me54fbf6581" x="403.484334" y="100.271906" style="fill: #0000ff; stroke: #0000ff"/>
     <use xlink:href="#me54fbf6581" x="413.119047" y="103.736735" style="fill: #0000ff; stroke: #0000ff"/>
     <use xlink:href="#me54fbf6581" x="422.631179" y="107.218922" style="fill: #0000ff; stroke: #0000ff"/>
     <use xlink:href="#me54fbf6581" x="432.006111" y="110.721171" style="fill: #0000ff; stroke: #0000ff"/>
     <use xlink:href="#me54fbf6581" x="441.229497" y="114.245607" style="fill: #0000ff; stroke: #0000ff"/>
     <use xlink:href="#me54fbf6581" x="450.287291" y="117.793919" style="fill: #0000ff; stroke: #0000ff"/>
     <use xlink:href="#me54fbf6581" x="459.165759" y="121.36745" style="fill: #0000ff; stroke: #0000ff"/>
     <use xlink:href="#me54fbf6581" x="467.851501" y="124.967258" style="fill: #0000ff; stroke: #0000ff"/>
     <use xlink:href="#me54fbf6581" x="476.331467" y="128.594157" style="fill: #0000ff; stroke: #0000ff"/>
     <use xlink:href="#me54fbf6581" x="484.592976" y="132.248735" style="fill: #0000ff; stroke: #0000ff"/>
     <use xlink:href="#me54fbf6581" x="492.623727" y="135.93137" style="fill: #0000ff; stroke: #0000ff"/>
     <use xlink:href="#me54fbf6581" x="500.411824" y="139.642227" style="fill: #0000ff; stroke: #0000ff"/>
     <use xlink:href="#me54fbf6581" x="507.945781" y="143.381263" style="fill: #0000ff; stroke: #0000ff"/>
     <use xlink:href="#me54fbf6581" x="515.214541" y="147.148217" style="fill: #0000ff; stroke: #0000ff"/>
     <use xlink:href="#me54fbf6581" x="522.207489" y="150.942594" style="fill: #0000ff; stroke: #0000ff"/>
     <use xlink:href="#me54fbf6581" x="528.914463" y="154.763645" style="fill: #0000ff; stroke: #0000ff"/>
     <use xlink:href="#me54fbf6581" x="535.325765" y="158.610325" style="fill: #0000ff; stroke: #0000ff"/>
     <use xlink:href="#me54fbf6581" x="541.432171" y="162.481229" style="fill: #0000ff; stroke: #0000ff"/>
     <use xlink:href="#me54fbf6581" x="547.224943" y="166.374495" style="fill: #0000ff; stroke: #0000ff"/>
     <use xlink:href="#me54fbf6581" x="552.695831" y="170.287642" style="fill: #0000ff; stroke: #0000ff"/>
     <use xlink:href="#me54fbf6581" x="557.837086" y="174.217336" style="fill: #0000ff; stroke: #0000ff"/>
     <use xlink:href="#me54fbf6581" x="562.641462" y="178.159046" style="fill: #0000ff; stroke: #0000ff"/>
     <use xlink:href="#me54fbf6581" x="567.10222" y="182.106582" style="fill: #0000ff; stroke: #0000ff"/>
     <use xlink:href="#me54fbf6581" x="571.213136" y="186.051576" style="fill: #0000ff; stroke: #0000ff"/>
     <use xlink:href="#me54fbf6581" x="574.968501" y="189.983139" style="fill: #0000ff; stroke: #0000ff"/>
     <use xlink:href="#me54fbf6581" x="578.363121" y="193.888522" style="fill: #0000ff; stroke: #0000ff"/>
     <use xlink:href="#me54fbf6581" x="581.392325" y="197.757036" style="fill: #0000ff; stroke: #0000ff"/>
     <use xlink:href="#me54fbf6581" x="584.051957" y="201.593199" style="fill: #0000ff; stroke: #0000ff"/>
     <use xlink:href="#me54fbf6581" x="586.338385" y="205.453711" style="fill: #0000ff; stroke: #0000ff"/>
     <use xlink:href="#me54fbf6581" x="588.248496" y="209.541127" style="fill: #0000ff; stroke: #0000ff"/>
     <use xlink:href="#me54fbf6581" x="589.779695" y="214.416376" style="fill: #0000ff; stroke: #0000ff"/>
     <use xlink:href="#me54fbf6581" x="590.929908" y="221.371088" style="fill: #0000ff; stroke: #0000ff"/>
     <use xlink:href="#me54fbf6581" x="591.697581" y="232.056911" style="fill: #0000ff; stroke: #0000ff"/>
     <use xlink:href="#me54fbf6581" x="592.081676" y="245.532464" style="fill: #0000ff; stroke: #0000ff"/>
    </g>
   </g>
   <g id="line2d_32">
    <path d="M 591.916377 245.532464 
L 591.51865 241.322566 
L 590.723884 238.853102 
L 589.533452 235.788588 
L 587.949406 232.649863 
L 585.974477 229.908714 
L 583.612062 227.714697 
L 580.866214 226.04337 
L 577.741636 224.81086 
L 574.243663 223.927688 
L 570.378248 223.316962 
L 566.151952 222.917542 
L 561.571919 222.682149 
L 556.645864 222.574401 
L 551.382054 222.566115 
L 545.789287 222.635173 
L 539.876871 222.763935 
L 533.654607 222.938097 
L 527.132765 223.145858 
L 520.322063 223.377335 
L 513.233648 223.624138 
L 505.87907 223.87906 
L 498.270261 224.13586 
L 490.419513 224.389108 
L 482.339457 224.634068 
L 474.043034 224.866624 
L 465.543477 225.083228 
L 456.854286 225.28087 
L 447.989201 225.457067 
L 438.962183 225.609864 
L 429.787382 225.737854 
L 420.47912 225.840215 
L 411.051861 225.916758 
L 401.520188 225.968011 
L 391.898777 225.995331 
L 382.202374 226.001071 
L 372.445766 225.988836 
L 362.643762 225.963896 
L 352.811168 225.933891 
L 342.962761 225.910143 
L 333.113268 225.910402 
L 323.277348 225.965634 
L 313.469567 226.145493 
L 303.716879 226.623925 
L 294.072623 226.97252 
L 284.539206 226.99734 
L 275.091914 226.797359 
L 265.743679 226.441031 
L 256.507221 225.96162 
L 247.39505 225.380188 
L 238.419465 224.712576 
L 229.592557 223.972162 
L 220.926211 223.17119 
L 212.432112 222.321548 
L 204.121744 221.435289 
L 196.006396 220.525056 
L 188.097163 219.604478 
L 180.404946 218.688583 
L 172.940452 217.794285 
L 165.714191 216.940981 
L 158.736468 216.151315 
L 152.017378 215.452183 
L 145.566796 214.876094 
L 139.39436 214.463008 
L 133.509462 214.262889 
L 127.921221 214.339272 
L 122.638472 214.774318 
L 117.669737 215.676067 
L 113.023203 217.188926 
L 108.706697 219.508986 
L 104.72766 222.906339 
L 101.093116 227.757106 
L 97.809654 234.586957 
L 94.883392 244.121089 
L 92.319959 257.307371 
L 90.124466 275.181464 
L 88.301491 298.150682 
L 86.855051 323.659468 
L 85.788593 341.36 
L 85.104975 331.610272 
" clip-path="url(#p0a2f3f7af5)" style="fill: none; stroke: #ff0000; stroke-width: 1.5; stroke-linecap: square"/>
    <defs>
     <path id="m26ece978ea" d="M 0 1.5 
C 0.397805 1.5 0.77937 1.341951 1.06066 1.06066 
C 1.341951 0.77937 1.5 0.397805 1.5 0 
C 1.5 -0.397805 1.341951 -0.77937 1.06066 -1.06066 
C 0.77937 -1.341951 0.397805 -1.5 0 -1.5 
C -0.397805 -1.5 -0.77937 -1.341951 -1.06066 -1.06066 
C -1.341951 -0.77937 -1.5 -0.397805 -1.5 0 
C -1.5 0.397805 -1.341951 0.77937 -1.06066 1.06066 
C -0.77937 1.341951 -0.397805 1.5 0 1.5 
z
" style="stroke: #ff0000"/>
    </defs>
    <g clip-path="url(#p0a2f3f7af5)">
     <use xlink:href="#m26ece978ea" x="591.916377" y="245.532464" style="fill: #ff0000; stroke: #ff0000"/>
     <use xlink:href="#m26ece978ea" x="591.51865" y="241.322566" style="fill: #ff0000; stroke: #ff0000"/>
     <use xlink:href="#m26ece978ea" x="590.723884" y="238.853102" style="fill: #ff0000; stroke: #ff0000"/>
     <use xlink:href="#m26ece978ea" x="589.533452" y="235.788588" style="fill: #ff0000; stroke: #ff0000"/>
     <use xlink:href="#m26ece978ea" x="587.949406" y="232.649863" style="fill: #ff0000; stroke: #ff0000"/>
     <use xlink:href="#m26ece978ea" x="585.974477" y="229.908714" style="fill: #ff0000; stroke: #ff0000"/>
     <use xlink:href="#m26ece978ea" x="583.612062" y="227.714697" style="fill: #ff0000; stroke: #ff0000"/>
     <use xlink:href="#m26ece978ea" x="580.866214" y="226.04337" style="fill: #ff0000; stroke: #ff0000"/>
     <use xlink:href="#m26ece978ea" x="577.741636" y="224.81086" style="fill: #ff0000; stroke: #ff0000"/>
     <use xlink:href="#m26ece978ea" x="574.243663" y="223.927688" style="fill: #ff0000; stroke: #ff0000"/>
     <use xlink:href="#m26ece978ea" x="570.378248" y="223.316962" style="fill: #ff0000; stroke: #ff0000"/>
     <use xlink:href="#m26ece978ea" x="566.151952" y="222.917542" style="fill: #ff0000; stroke: #ff0000"/>
     <use xlink:href="#m26ece978ea" x="561.571919" y="222.682149" style="fill: #ff0000; stroke: #ff0000"/>
     <use xlink:href="#m26ece978ea" x="556.645864" y="222.574401" style="fill: #ff0000; stroke: #ff0000"/>
     <use xlink:href="#m26ece978ea" x="551.382054" y="222.566115" style="fill: #ff0000; stroke: #ff0000"/>
     <use xlink:href="#m26ece978ea" x="545.789287" y="222.635173" style="fill: #ff0000; stroke: #ff0000"/>
     <use xlink:href="#m26ece978ea" x="539.876871" y="222.763935" style="fill: #ff0000; stroke: #ff0000"/>
     <use xlink:href="#m26ece978ea" x="533.654607" y="222.938097" style="fill: #ff0000; stroke: #ff0000"/>
     <use xlink:href="#m26ece978ea" x="527.132765" y="223.145858" style="fill: #ff0000; stroke: #ff0000"/>
     <use xlink:href="#m26ece978ea" x="520.322063" y="223.377335" style="fill: #ff0000; stroke: #ff0000"/>
     <use xlink:href="#m26ece978ea" x="513.233648" y="223.624138" style="fill: #ff0000; stroke: #ff0000"/>
     <use xlink:href="#m26ece978ea" x="505.87907" y="223.87906" style="fill: #ff0000; stroke: #ff0000"/>
     <use xlink:href="#m26ece978ea" x="498.270261" y="224.13586" style="fill: #ff0000; stroke: #ff0000"/>
     <use xlink:href="#m26ece978ea" x="490.419513" y="224.389108" style="fill: #ff0000; stroke: #ff0000"/>
     <use xlink:href="#m26ece978ea" x="482.339457" y="224.634068" style="fill: #ff0000; stroke: #ff0000"/>
     <use xlink:href="#m26ece978ea" x="474.043034" y="224.866624" style="fill: #ff0000; stroke: #ff0000"/>
     <use xlink:href="#m26ece978ea" x="465.543477" y="225.083228" style="fill: #ff0000; stroke: #ff0000"/>
     <use xlink:href="#m26ece978ea" x="456.854286" y="225.28087" style="fill: #ff0000; stroke: #ff0000"/>
     <use xlink:href="#m26ece978ea" x="447.989201" y="225.457067" style="fill: #ff0000; stroke: #ff0000"/>
     <use xlink:href="#m26ece978ea" x="438.962183" y="225.609864" style="fill: #ff0000; stroke: #ff0000"/>
     <use xlink:href="#m26ece978ea" x="429.787382" y="225.737854" style="fill: #ff0000; stroke: #ff0000"/>
     <use xlink:href="#m26ece978ea" x="420.47912" y="225.840215" style="fill: #ff0000; stroke: #ff0000"/>
     <use xlink:href="#m26ece978ea" x="411.051861" y="225.916758" style="fill: #ff0000; stroke: #ff0000"/>
     <use xlink:href="#m26ece978ea" x="401.520188" y="225.968011" style="fill: #ff0000; stroke: #ff0000"/>
     <use xlink:href="#m26ece978ea" x="391.898777" y="225.995331" style="fill: #ff0000; stroke: #ff0000"/>
     <use xlink:href="#m26ece978ea" x="382.202374" y="226.001071" style="fill: #ff0000; stroke: #ff0000"/>
     <use xlink:href="#m26ece978ea" x="372.445766" y="225.988836" style="fill: #ff0000; stroke: #ff0000"/>
     <use xlink:href="#m26ece978ea" x="362.643762" y="225.963896" style="fill: #ff0000; stroke: #ff0000"/>
     <use xlink:href="#m26ece978ea" x="352.811168" y="225.933891" style="fill: #ff0000; stroke: #ff0000"/>
     <use xlink:href="#m26ece978ea" x="342.962761" y="225.910143" style="fill: #ff0000; stroke: #ff0000"/>
     <use xlink:href="#m26ece978ea" x="333.113268" y="225.910402" style="fill: #ff0000; stroke: #ff0000"/>
     <use xlink:href="#m26ece978ea" x="323.277348" y="225.965634" style="fill: #ff0000; stroke: #ff0000"/>
     <use xlink:href="#m26ece978ea" x="313.469567" y="226.145493" style="fill: #ff0000; stroke: #ff0000"/>
     <use xlink:href="#m26ece978ea" x="303.716879" y="226.623925" style="fill: #ff0000; stroke: #ff0000"/>
     <use xlink:href="#m26ece978ea" x="294.072623" y="226.97252" style="fill: #ff0000; stroke: #ff0000"/>
     <use xlink:href="#m26ece978ea" x="284.539206" y="226.99734" style="fill: #ff0000; stroke: #ff0000"/>
     <use xlink:href="#m26ece978ea" x="275.091914" y="226.797359" style="fill: #ff0000; stroke: #ff0000"/>
     <use xlink:href="#m26ece978ea" x="265.743679" y="226.441031" style="fill: #ff0000; stroke: #ff0000"/>
     <use xlink:href="#m26ece978ea" x="256.507221" y="225.96162" style="fill: #ff0000; stroke: #ff0000"/>
     <use xlink:href="#m26ece978ea" x="247.39505" y="225.380188" style="fill: #ff0000; stroke: #ff0000"/>
     <use xlink:href="#m26ece978ea" x="238.419465" y="224.712576" style="fill: #ff0000; stroke: #ff0000"/>
     <use xlink:href="#m26ece978ea" x="229.592557" y="223.972162" style="fill: #ff0000; stroke: #ff0000"/>
     <use xlink:href="#m26ece978ea" x="220.926211" y="223.17119" style="fill: #ff0000; stroke: #ff0000"/>
     <use xlink:href="#m26ece978ea" x="212.432112" y="222.321548" style="fill: #ff0000; stroke: #ff0000"/>
     <use xlink:href="#m26ece978ea" x="204.121744" y="221.435289" style="fill: #ff0000; stroke: #ff0000"/>
     <use xlink:href="#m26ece978ea" x="196.006396" y="220.525056" style="fill: #ff0000; stroke: #ff0000"/>
     <use xlink:href="#m26ece978ea" x="188.097163" y="219.604478" style="fill: #ff0000; stroke: #ff0000"/>
     <use xlink:href="#m26ece978ea" x="180.404946" y="218.688583" style="fill: #ff0000; stroke: #ff0000"/>
     <use xlink:href="#m26ece978ea" x="172.940452" y="217.794285" style="fill: #ff0000; stroke: #ff0000"/>
     <use xlink:href="#m26ece978ea" x="165.714191" y="216.940981" style="fill: #ff0000; stroke: #ff0000"/>
     <use xlink:href="#m26ece978ea" x="158.736468" y="216.151315" style="fill: #ff0000; stroke: #ff0000"/>
     <use xlink:href="#m26ece978ea" x="152.017378" y="215.452183" style="fill: #ff0000; stroke: #ff0000"/>
     <use xlink:href="#m26ece978ea" x="145.566796" y="214.876094" style="fill: #ff0000; stroke: #ff0000"/>
     <use xlink:href="#m26ece978ea" x="139.39436" y="214.463008" style="fill: #ff0000; stroke: #ff0000"/>
     <use xlink:href="#m26ece978ea" x="133.509462" y="214.262889" style="fill: #ff0000; stroke: #ff0000"/>
     <use xlink:href="#m26ece978ea" x="127.921221" y="214.339272" style="fill: #ff0000; stroke: #ff0000"/>
     <use xlink:href="#m26ece978ea" x="122.638472" y="214.774318" style="fill: #ff0000; stroke: #ff0000"/>
     <use xlink:href="#m26ece978ea" x="117.669737" y="215.676067" style="fill: #ff0000; stroke: #ff0000"/>
     <use xlink:href="#m26ece978ea" x="113.023203" y="217.188926" style="fill: #ff0000; stroke: #ff0000"/>
     <use xlink:href="#m26ece978ea" x="108.706697" y="219.508986" style="fill: #ff0000; stroke: #ff0000"/>
     <use xlink:href="#m26ece978ea" x="104.72766" y="222.906339" style="fill: #ff0000; stroke: #ff0000"/>
     <use xlink:href="#m26ece978ea" x="101.093116" y="227.757106" style="fill: #ff0000; stroke: #ff0000"/>
     <use xlink:href="#m26ece978ea" x="97.809654" y="234.586957" style="fill: #ff0000; stroke: #ff0000"/>
     <use xlink:href="#m26ece978ea" x="94.883392" y="244.121089" style="fill: #ff0000; stroke: #ff0000"/>
     <use xlink:href="#m26ece978ea" x="92.319959" y="257.307371" style="fill: #ff0000; stroke: #ff0000"/>
     <use xlink:href="#m26ece978ea" x="90.124466" y="275.181464" style="fill: #ff0000; stroke: #ff0000"/>
     <use xlink:href="#m26ece978ea" x="88.301491" y="298.150682" style="fill: #ff0000; stroke: #ff0000"/>
     <use xlink:href="#m26ece978ea" x="86.855051" y="323.659468" style="fill: #ff0000; stroke: #ff0000"/>
     <use xlink:href="#m26ece978ea" x="85.788593" y="341.36" style="fill: #ff0000; stroke: #ff0000"/>
     <use xlink:href="#m26ece978ea" x="85.104975" y="331.610272" style="fill: #ff0000; stroke: #ff0000"/>
    </g>
   </g>
   <g id="patch_3">
    <path d="M 59.445312 356.48 
L 59.445312 23.84 
" style="fill: none; stroke: #000000; stroke-width: 0.8; stroke-linejoin: miter; stroke-linecap: square"/>
   </g>
   <g id="patch_4">
    <path d="M 617.445312 356.48 
L 617.445312 23.84 
" style="fill: none; stroke: #000000; stroke-width: 0.8; stroke-linejoin: miter; stroke-linecap: square"/>
   </g>
   <g id="patch_5">
    <path d="M 59.445312 356.48 
L 617.445312 356.48 
" style="fill: none; stroke: #000000; stroke-width: 0.8; stroke-linejoin: miter; stroke-linecap: square"/>
   </g>
   <g id="patch_6">
    <path d="M 59.445312 23.84 
L 617.445312 23.84 
" style="fill: none; stroke: #000000; stroke-width: 0.8; stroke-linejoin: miter; stroke-linecap: square"/>
   </g>
   <g id="text_18">
    <!-- Pressure Coefficient Distribution for NACA 5409 $\alpha$ = 2.3° (Potential Analysis) -->
    <g transform="translate(69.925312 17.84) scale(0.14 -0.14)">
     <defs>
      <path id="DejaVuSans-50" d="M 1259 4147 
L 1259 2394 
L 2053 2394 
Q 2494 2394 2734 2622 
Q 2975 2850 2975 3272 
Q 2975 3691 2734 3919 
Q 2494 4147 2053 4147 
L 1259 4147 
z
M 628 4666 
L 2053 4666 
Q 2838 4666 3239 4311 
Q 3641 3956 3641 3272 
Q 3641 2581 3239 2228 
Q 2838 1875 2053 1875 
L 1259 1875 
L 1259 0 
L 628 0 
L 628 4666 
z
" transform="scale(0.015625)"/>
      <path id="DejaVuSans-72" d="M 2631 2963 
Q 2534 3019 2420 3045 
Q 2306 3072 2169 3072 
Q 1681 3072 1420 2755 
Q 1159 2438 1159 1844 
L 1159 0 
L 581 0 
L 581 3500 
L 1159 3500 
L 1159 2956 
Q 1341 3275 1631 3429 
Q 1922 3584 2338 3584 
Q 2397 3584 2469 3576 
Q 2541 3569 2628 3553 
L 2631 2963 
z
" transform="scale(0.015625)"/>
      <path id="DejaVuSans-65" d="M 3597 1894 
L 3597 1613 
L 953 1613 
Q 991 1019 1311 708 
Q 1631 397 2203 397 
Q 2534 397 2845 478 
Q 3156 559 3463 722 
L 3463 178 
Q 3153 47 2828 -22 
Q 2503 -91 2169 -91 
Q 1331 -91 842 396 
Q 353 884 353 1716 
Q 353 2575 817 3079 
Q 1281 3584 2069 3584 
Q 2775 3584 3186 3129 
Q 3597 2675 3597 1894 
z
M 3022 2063 
Q 3016 2534 2758 2815 
Q 2500 3097 2075 3097 
Q 1594 3097 1305 2825 
Q 1016 2553 972 2059 
L 3022 2063 
z
" transform="scale(0.015625)"/>
      <path id="DejaVuSans-73" d="M 2834 3397 
L 2834 2853 
Q 2591 2978 2328 3040 
Q 2066 3103 1784 3103 
Q 1356 3103 1142 2972 
Q 928 2841 928 2578 
Q 928 2378 1081 2264 
Q 1234 2150 1697 2047 
L 1894 2003 
Q 2506 1872 2764 1633 
Q 3022 1394 3022 966 
Q 3022 478 2636 193 
Q 2250 -91 1575 -91 
Q 1294 -91 989 -36 
Q 684 19 347 128 
L 347 722 
Q 666 556 975 473 
Q 1284 391 1588 391 
Q 1994 391 2212 530 
Q 2431 669 2431 922 
Q 2431 1156 2273 1281 
Q 2116 1406 1581 1522 
L 1381 1569 
Q 847 1681 609 1914 
Q 372 2147 372 2553 
Q 372 3047 722 3315 
Q 1072 3584 1716 3584 
Q 2034 3584 2315 3537 
Q 2597 3491 2834 3397 
z
" transform="scale(0.015625)"/>
      <path id="DejaVuSans-75" d="M 544 1381 
L 544 3500 
L 1119 3500 
L 1119 1403 
Q 1119 906 1312 657 
Q 1506 409 1894 409 
Q 2359 409 2629 706 
Q 2900 1003 2900 1516 
L 2900 3500 
L 3475 3500 
L 3475 0 
L 2900 0 
L 2900 538 
Q 2691 219 2414 64 
Q 2138 -91 1772 -91 
Q 1169 -91 856 284 
Q 544 659 544 1381 
z
M 1991 3584 
L 1991 3584 
z
" transform="scale(0.015625)"/>
      <path id="DejaVuSans-20" transform="scale(0.015625)"/>
      <path id="DejaVuSans-43" d="M 4122 4306 
L 4122 3641 
Q 3803 3938 3442 4084 
Q 3081 4231 2675 4231 
Q 1875 4231 1450 3742 
Q 1025 3253 1025 2328 
Q 1025 1406 1450 917 
Q 1875 428 2675 428 
Q 3081 428 3442 575 
Q 3803 722 4122 1019 
L 4122 359 
Q 3791 134 3420 21 
Q 3050 -91 2638 -91 
Q 1578 -91 968 557 
Q 359 1206 359 2328 
Q 359 3453 968 4101 
Q 1578 4750 2638 4750 
Q 3056 4750 3426 4639 
Q 3797 4528 4122 4306 
z
" transform="scale(0.015625)"/>
      <path id="DejaVuSans-6f" d="M 1959 3097 
Q 1497 3097 1228 2736 
Q 959 2375 959 1747 
Q 959 1119 1226 758 
Q 1494 397 1959 397 
Q 2419 397 2687 759 
Q 2956 1122 2956 1747 
Q 2956 2369 2687 2733 
Q 2419 3097 1959 3097 
z
M 1959 3584 
Q 2709 3584 3137 3096 
Q 3566 2609 3566 1747 
Q 3566 888 3137 398 
Q 2709 -91 1959 -91 
Q 1206 -91 779 398 
Q 353 888 353 1747 
Q 353 2609 779 3096 
Q 1206 3584 1959 3584 
z
" transform="scale(0.015625)"/>
      <path id="DejaVuSans-66" d="M 2375 4863 
L 2375 4384 
L 1825 4384 
Q 1516 4384 1395 4259 
Q 1275 4134 1275 3809 
L 1275 3500 
L 2222 3500 
L 2222 3053 
L 1275 3053 
L 1275 0 
L 697 0 
L 697 3053 
L 147 3053 
L 147 3500 
L 697 3500 
L 697 3744 
Q 697 4328 969 4595 
Q 1241 4863 1831 4863 
L 2375 4863 
z
" transform="scale(0.015625)"/>
      <path id="DejaVuSans-69" d="M 603 3500 
L 1178 3500 
L 1178 0 
L 603 0 
L 603 3500 
z
M 603 4863 
L 1178 4863 
L 1178 4134 
L 603 4134 
L 603 4863 
z
" transform="scale(0.015625)"/>
      <path id="DejaVuSans-6e" d="M 3513 2113 
L 3513 0 
L 2938 0 
L 2938 2094 
Q 2938 2591 2744 2837 
Q 2550 3084 2163 3084 
Q 1697 3084 1428 2787 
Q 1159 2491 1159 1978 
L 1159 0 
L 581 0 
L 581 3500 
L 1159 3500 
L 1159 2956 
Q 1366 3272 1645 3428 
Q 1925 3584 2291 3584 
Q 2894 3584 3203 3211 
Q 3513 2838 3513 2113 
z
" transform="scale(0.015625)"/>
      <path id="DejaVuSans-74" d="M 1172 4494 
L 1172 3500 
L 2356 3500 
L 2356 3053 
L 1172 3053 
L 1172 1153 
Q 1172 725 1289 603 
Q 1406 481 1766 481 
L 2356 481 
L 2356 0 
L 1766 0 
Q 1100 0 847 248 
Q 594 497 594 1153 
L 594 3053 
L 172 3053 
L 172 3500 
L 594 3500 
L 594 4494 
L 1172 4494 
z
" transform="scale(0.015625)"/>
      <path id="DejaVuSans-44" d="M 1259 4147 
L 1259 519 
L 2022 519 
Q 2988 519 3436 956 
Q 3884 1394 3884 2338 
Q 3884 3275 3436 3711 
Q 2988 4147 2022 4147 
L 1259 4147 
z
M 628 4666 
L 1925 4666 
Q 3281 4666 3915 4102 
Q 4550 3538 4550 2338 
Q 4550 1131 3912 565 
Q 3275 0 1925 0 
L 628 0 
L 628 4666 
z
" transform="scale(0.015625)"/>
      <path id="DejaVuSans-62" d="M 3116 1747 
Q 3116 2381 2855 2742 
Q 2594 3103 2138 3103 
Q 1681 3103 1420 2742 
Q 1159 2381 1159 1747 
Q 1159 1113 1420 752 
Q 1681 391 2138 391 
Q 2594 391 2855 752 
Q 3116 1113 3116 1747 
z
M 1159 2969 
Q 1341 3281 1617 3432 
Q 1894 3584 2278 3584 
Q 2916 3584 3314 3078 
Q 3713 2572 3713 1747 
Q 3713 922 3314 415 
Q 2916 -91 2278 -91 
Q 1894 -91 1617 61 
Q 1341 213 1159 525 
L 1159 0 
L 581 0 
L 581 4863 
L 1159 4863 
L 1159 2969 
z
" transform="scale(0.015625)"/>
      <path id="DejaVuSans-4e" d="M 628 4666 
L 1478 4666 
L 3547 763 
L 3547 4666 
L 4159 4666 
L 4159 0 
L 3309 0 
L 1241 3903 
L 1241 0 
L 628 0 
L 628 4666 
z
" transform="scale(0.015625)"/>
      <path id="DejaVuSans-41" d="M 2188 4044 
L 1331 1722 
L 3047 1722 
L 2188 4044 
z
M 1831 4666 
L 2547 4666 
L 4325 0 
L 3669 0 
L 3244 1197 
L 1141 1197 
L 716 0 
L 50 0 
L 1831 4666 
z
" transform="scale(0.015625)"/>
      <path id="DejaVuSans-39" d="M 703 97 
L 703 672 
Q 941 559 1184 500 
Q 1428 441 1663 441 
Q 2288 441 2617 861 
Q 2947 1281 2994 2138 
Q 2813 1869 2534 1725 
Q 2256 1581 1919 1581 
Q 1219 1581 811 2004 
Q 403 2428 403 3163 
Q 403 3881 828 4315 
Q 1253 4750 1959 4750 
Q 2769 4750 3195 4129 
Q 3622 3509 3622 2328 
Q 3622 1225 3098 567 
Q 2575 -91 1691 -91 
Q 1453 -91 1209 -44 
Q 966 3 703 97 
z
M 1959 2075 
Q 2384 2075 2632 2365 
Q 2881 2656 2881 3163 
Q 2881 3666 2632 3958 
Q 2384 4250 1959 4250 
Q 1534 4250 1286 3958 
Q 1038 3666 1038 3163 
Q 1038 2656 1286 2365 
Q 1534 2075 1959 2075 
z
" transform="scale(0.015625)"/>
      <path id="DejaVuSans-Oblique-3b1" d="M 2619 1628 
L 2622 2350 
Q 2625 3088 2069 3091 
Q 1653 3094 1394 2747 
Q 1069 2319 959 1747 
Q 825 1059 994 731 
Q 1169 397 1547 397 
Q 1966 397 2319 1063 
L 2619 1628 
z
M 2166 3578 
Q 3141 3594 3128 2584 
Q 3128 2584 3616 3500 
L 4128 3500 
L 3119 1603 
L 3109 919 
Q 3109 766 3194 638 
Q 3291 488 3391 488 
L 3669 488 
L 3575 0 
L 3228 0 
Q 2934 0 2722 263 
Q 2622 394 2619 669 
Q 2416 334 2066 50 
Q 1900 -81 1453 -78 
Q 722 -72 456 397 
Q 184 884 353 1747 
Q 534 2675 1009 3097 
Q 1544 3569 2166 3578 
z
" transform="scale(0.015625)"/>
      <path id="DejaVuSans-3d" d="M 678 2906 
L 4684 2906 
L 4684 2381 
L 678 2381 
L 678 2906 
z
M 678 1631 
L 4684 1631 
L 4684 1100 
L 678 1100 
L 678 1631 
z
" transform="scale(0.015625)"/>
      <path id="DejaVuSans-33" d="M 2597 2516 
Q 3050 2419 3304 2112 
Q 3559 1806 3559 1356 
Q 3559 666 3084 287 
Q 2609 -91 1734 -91 
Q 1441 -91 1130 -33 
Q 819 25 488 141 
L 488 750 
Q 750 597 1062 519 
Q 1375 441 1716 441 
Q 2309 441 2620 675 
Q 2931 909 2931 1356 
Q 2931 1769 2642 2001 
Q 2353 2234 1838 2234 
L 1294 2234 
L 1294 2753 
L 1863 2753 
Q 2328 2753 2575 2939 
Q 2822 3125 2822 3475 
Q 2822 3834 2567 4026 
Q 2313 4219 1838 4219 
Q 1578 4219 1281 4162 
Q 984 4106 628 3988 
L 628 4550 
Q 988 4650 1302 4700 
Q 1616 4750 1894 4750 
Q 2613 4750 3031 4423 
Q 3450 4097 3450 3541 
Q 3450 3153 3228 2886 
Q 3006 2619 2597 2516 
z
" transform="scale(0.015625)"/>
      <path id="DejaVuSans-b0" d="M 1600 4347 
Q 1350 4347 1178 4173 
Q 1006 4000 1006 3750 
Q 1006 3503 1178 3333 
Q 1350 3163 1600 3163 
Q 1850 3163 2022 3333 
Q 2194 3503 2194 3750 
Q 2194 3997 2020 4172 
Q 1847 4347 1600 4347 
z
M 1600 4750 
Q 1800 4750 1984 4673 
Q 2169 4597 2303 4453 
Q 2447 4313 2519 4134 
Q 2591 3956 2591 3750 
Q 2591 3338 2302 3052 
Q 2013 2766 1594 2766 
Q 1172 2766 890 3047 
Q 609 3328 609 3750 
Q 609 4169 896 4459 
Q 1184 4750 1600 4750 
z
" transform="scale(0.015625)"/>
      <path id="DejaVuSans-28" d="M 1984 4856 
Q 1566 4138 1362 3434 
Q 1159 2731 1159 2009 
Q 1159 1288 1364 580 
Q 1569 -128 1984 -844 
L 1484 -844 
Q 1016 -109 783 600 
Q 550 1309 550 2009 
Q 550 2706 781 3412 
Q 1013 4119 1484 4856 
L 1984 4856 
z
" transform="scale(0.015625)"/>
      <path id="DejaVuSans-61" d="M 2194 1759 
Q 1497 1759 1228 1600 
Q 959 1441 959 1056 
Q 959 750 1161 570 
Q 1363 391 1709 391 
Q 2188 391 2477 730 
Q 2766 1069 2766 1631 
L 2766 1759 
L 2194 1759 
z
M 3341 1997 
L 3341 0 
L 2766 0 
L 2766 531 
Q 2569 213 2275 61 
Q 1981 -91 1556 -91 
Q 1019 -91 701 211 
Q 384 513 384 1019 
Q 384 1609 779 1909 
Q 1175 2209 1959 2209 
L 2766 2209 
L 2766 2266 
Q 2766 2663 2505 2880 
Q 2244 3097 1772 3097 
Q 1472 3097 1187 3025 
Q 903 2953 641 2809 
L 641 3341 
Q 956 3463 1253 3523 
Q 1550 3584 1831 3584 
Q 2591 3584 2966 3190 
Q 3341 2797 3341 1997 
z
" transform="scale(0.015625)"/>
      <path id="DejaVuSans-6c" d="M 603 4863 
L 1178 4863 
L 1178 0 
L 603 0 
L 603 4863 
z
" transform="scale(0.015625)"/>
      <path id="DejaVuSans-79" d="M 2059 -325 
Q 1816 -950 1584 -1140 
Q 1353 -1331 966 -1331 
L 506 -1331 
L 506 -850 
L 844 -850 
Q 1081 -850 1212 -737 
Q 1344 -625 1503 -206 
L 1606 56 
L 191 3500 
L 800 3500 
L 1894 763 
L 2988 3500 
L 3597 3500 
L 2059 -325 
z
" transform="scale(0.015625)"/>
      <path id="DejaVuSans-29" d="M 513 4856 
L 1013 4856 
Q 1481 4119 1714 3412 
Q 1947 2706 1947 2009 
Q 1947 1309 1714 600 
Q 1481 -109 1013 -844 
L 513 -844 
Q 928 -128 1133 580 
Q 1338 1288 1338 2009 
Q 1338 2731 1133 3434 
Q 928 4138 513 4856 
z
" transform="scale(0.015625)"/>
     </defs>
     <use xlink:href="#DejaVuSans-50" transform="translate(0 0.015625)"/>
     <use xlink:href="#DejaVuSans-72" transform="translate(60.302734 0.015625)"/>
     <use xlink:href="#DejaVuSans-65" transform="translate(101.416016 0.015625)"/>
     <use xlink:href="#DejaVuSans-73" transform="translate(162.939453 0.015625)"/>
     <use xlink:href="#DejaVuSans-73" transform="translate(215.039062 0.015625)"/>
     <use xlink:href="#DejaVuSans-75" transform="translate(267.138672 0.015625)"/>
     <use xlink:href="#DejaVuSans-72" transform="translate(330.517578 0.015625)"/>
     <use xlink:href="#DejaVuSans-65" transform="translate(371.630859 0.015625)"/>
     <use xlink:href="#DejaVuSans-20" transform="translate(433.154297 0.015625)"/>
     <use xlink:href="#DejaVuSans-43" transform="translate(464.941406 0.015625)"/>
     <use xlink:href="#DejaVuSans-6f" transform="translate(534.765625 0.015625)"/>
     <use xlink:href="#DejaVuSans-65" transform="translate(595.947266 0.015625)"/>
     <use xlink:href="#DejaVuSans-66" transform="translate(657.470703 0.015625)"/>
     <use xlink:href="#DejaVuSans-66" transform="translate(692.675781 0.015625)"/>
     <use xlink:href="#DejaVuSans-69" transform="translate(727.880859 0.015625)"/>
     <use xlink:href="#DejaVuSans-63" transform="translate(755.664062 0.015625)"/>
     <use xlink:href="#DejaVuSans-69" transform="translate(810.644531 0.015625)"/>
     <use xlink:href="#DejaVuSans-65" transform="translate(838.427734 0.015625)"/>
     <use xlink:href="#DejaVuSans-6e" transform="translate(899.951172 0.015625)"/>
     <use xlink:href="#DejaVuSans-74" transform="translate(963.330078 0.015625)"/>
     <use xlink:href="#DejaVuSans-20" transform="translate(1002.539062 0.015625)"/>
     <use xlink:href="#DejaVuSans-44" transform="translate(1034.326172 0.015625)"/>
     <use xlink:href="#DejaVuSans-69" transform="translate(1111.328125 0.015625)"/>
     <use xlink:href="#DejaVuSans-73" transform="translate(1139.111328 0.015625)"/>
     <use xlink:href="#DejaVuSans-74" transform="translate(1191.210938 0.015625)"/>
     <use xlink:href="#DejaVuSans-72" transform="translate(1230.419922 0.015625)"/>
     <use xlink:href="#DejaVuSans-69" transform="translate(1271.533203 0.015625)"/>
     <use xlink:href="#DejaVuSans-62" transform="translate(1299.316406 0.015625)"/>
     <use xlink:href="#DejaVuSans-75" transform="translate(1362.792969 0.015625)"/>
     <use xlink:href="#DejaVuSans-74" transform="translate(1426.171875 0.015625)"/>
     <use xlink:href="#DejaVuSans-69" transform="translate(1465.380859 0.015625)"/>
     <use xlink:href="#DejaVuSans-6f" transform="translate(1493.164062 0.015625)"/>
     <use xlink:href="#DejaVuSans-6e" transform="translate(1554.345703 0.015625)"/>
     <use xlink:href="#DejaVuSans-20" transform="translate(1617.724609 0.015625)"/>
     <use xlink:href="#DejaVuSans-66" transform="translate(1649.511719 0.015625)"/>
     <use xlink:href="#DejaVuSans-6f" transform="translate(1684.716797 0.015625)"/>
     <use xlink:href="#DejaVuSans-72" transform="translate(1745.898438 0.015625)"/>
     <use xlink:href="#DejaVuSans-20" transform="translate(1787.011719 0.015625)"/>
     <use xlink:href="#DejaVuSans-4e" transform="translate(1818.798828 0.015625)"/>
     <use xlink:href="#DejaVuSans-41" transform="translate(1893.603516 0.015625)"/>
     <use xlink:href="#DejaVuSans-43" transform="translate(1962.011719 0.015625)"/>
     <use xlink:href="#DejaVuSans-41" transform="translate(2031.835938 0.015625)"/>
     <use xlink:href="#DejaVuSans-20" transform="translate(2100.244141 0.015625)"/>
     <use xlink:href="#DejaVuSans-35" transform="translate(2132.03125 0.015625)"/>
     <use xlink:href="#DejaVuSans-34" transform="translate(2195.654297 0.015625)"/>
     <use xlink:href="#DejaVuSans-30" transform="translate(2259.277344 0.015625)"/>
     <use xlink:href="#DejaVuSans-39" transform="translate(2322.900391 0.015625)"/>
     <use xlink:href="#DejaVuSans-20" transform="translate(2386.523438 0.015625)"/>
     <use xlink:href="#DejaVuSans-Oblique-3b1" transform="translate(2418.310547 0.015625)"/>
     <use xlink:href="#DejaVuSans-20" transform="translate(2484.228516 0.015625)"/>
     <use xlink:href="#DejaVuSans-3d" transform="translate(2516.015625 0.015625)"/>
     <use xlink:href="#DejaVuSans-20" transform="translate(2599.804688 0.015625)"/>
     <use xlink:href="#DejaVuSans-32" transform="translate(2631.591797 0.015625)"/>
     <use xlink:href="#DejaVuSans-2e" transform="translate(2695.214844 0.015625)"/>
     <use xlink:href="#DejaVuSans-33" transform="translate(2727.001953 0.015625)"/>
     <use xlink:href="#DejaVuSans-b0" transform="translate(2790.625 0.015625)"/>
     <use xlink:href="#DejaVuSans-20" transform="translate(2840.625 0.015625)"/>
     <use xlink:href="#DejaVuSans-28" transform="translate(2872.412109 0.015625)"/>
     <use xlink:href="#DejaVuSans-50" transform="translate(2911.425781 0.015625)"/>
     <use xlink:href="#DejaVuSans-6f" transform="translate(2971.728516 0.015625)"/>
     <use xlink:href="#DejaVuSans-74" transform="translate(3032.910156 0.015625)"/>
     <use xlink:href="#DejaVuSans-65" transform="translate(3072.119141 0.015625)"/>
     <use xlink:href="#DejaVuSans-6e" transform="translate(3133.642578 0.015625)"/>
     <use xlink:href="#DejaVuSans-74" transform="translate(3197.021484 0.015625)"/>
     <use xlink:href="#DejaVuSans-69" transform="translate(3236.230469 0.015625)"/>
     <use xlink:href="#DejaVuSans-61" transform="translate(3264.013672 0.015625)"/>
     <use xlink:href="#DejaVuSans-6c" transform="translate(3325.292969 0.015625)"/>
     <use xlink:href="#DejaVuSans-20" transform="translate(3353.076172 0.015625)"/>
     <use xlink:href="#DejaVuSans-41" transform="translate(3384.863281 0.015625)"/>
     <use xlink:href="#DejaVuSans-6e" transform="translate(3453.271484 0.015625)"/>
     <use xlink:href="#DejaVuSans-61" transform="translate(3516.650391 0.015625)"/>
     <use xlink:href="#DejaVuSans-6c" transform="translate(3577.929688 0.015625)"/>
     <use xlink:href="#DejaVuSans-79" transform="translate(3605.712891 0.015625)"/>
     <use xlink:href="#DejaVuSans-73" transform="translate(3664.892578 0.015625)"/>
     <use xlink:href="#DejaVuSans-69" transform="translate(3716.992188 0.015625)"/>
     <use xlink:href="#DejaVuSans-73" transform="translate(3744.775391 0.015625)"/>
     <use xlink:href="#DejaVuSans-29" transform="translate(3796.875 0.015625)"/>
    </g>
   </g>
   <g id="legend_1">
    <g id="patch_7">
     <path d="M 506.890625 61.19625 
L 610.445312 61.19625 
Q 612.445312 61.19625 612.445312 59.19625 
L 612.445312 30.84 
Q 612.445312 28.84 610.445312 28.84 
L 506.890625 28.84 
Q 504.890625 28.84 504.890625 30.84 
L 504.890625 59.19625 
Q 504.890625 61.19625 506.890625 61.19625 
z
" style="fill: #ffffff; opacity: 0.8; stroke: #cccccc; stroke-linejoin: miter"/>
    </g>
    <g id="line2d_33">
     <path d="M 508.890625 36.938437 
L 518.890625 36.938437 
L 528.890625 36.938437 
" style="fill: none; stroke: #0000ff; stroke-width: 1.5; stroke-linecap: square"/>
     <g>
      <use xlink:href="#me54fbf6581" x="518.890625" y="36.938437" style="fill: #0000ff; stroke: #0000ff"/>
     </g>
    </g>
    <g id="text_19">
     <!-- Upper Surface -->
     <g transform="translate(536.890625 40.438437) scale(0.1 -0.1)">
      <defs>
       <path id="DejaVuSans-55" d="M 556 4666 
L 1191 4666 
L 1191 1831 
Q 1191 1081 1462 751 
Q 1734 422 2344 422 
Q 2950 422 3222 751 
Q 3494 1081 3494 1831 
L 3494 4666 
L 4128 4666 
L 4128 1753 
Q 4128 841 3676 375 
Q 3225 -91 2344 -91 
Q 1459 -91 1007 375 
Q 556 841 556 1753 
L 556 4666 
z
" transform="scale(0.015625)"/>
       <path id="DejaVuSans-70" d="M 1159 525 
L 1159 -1331 
L 581 -1331 
L 581 3500 
L 1159 3500 
L 1159 2969 
Q 1341 3281 1617 3432 
Q 1894 3584 2278 3584 
Q 2916 3584 3314 3078 
Q 3713 2572 3713 1747 
Q 3713 922 3314 415 
Q 2916 -91 2278 -91 
Q 1894 -91 1617 61 
Q 1341 213 1159 525 
z
M 3116 1747 
Q 3116 2381 2855 2742 
Q 2594 3103 2138 3103 
Q 1681 3103 1420 2742 
Q 1159 2381 1159 1747 
Q 1159 1113 1420 752 
Q 1681 391 2138 391 
Q 2594 391 2855 752 
Q 3116 1113 3116 1747 
z
" transform="scale(0.015625)"/>
       <path id="DejaVuSans-53" d="M 3425 4513 
L 3425 3897 
Q 3066 4069 2747 4153 
Q 2428 4238 2131 4238 
Q 1616 4238 1336 4038 
Q 1056 3838 1056 3469 
Q 1056 3159 1242 3001 
Q 1428 2844 1947 2747 
L 2328 2669 
Q 3034 2534 3370 2195 
Q 3706 1856 3706 1288 
Q 3706 609 3251 259 
Q 2797 -91 1919 -91 
Q 1588 -91 1214 -16 
Q 841 59 441 206 
L 441 856 
Q 825 641 1194 531 
Q 1563 422 1919 422 
Q 2459 422 2753 634 
Q 3047 847 3047 1241 
Q 3047 1584 2836 1778 
Q 2625 1972 2144 2069 
L 1759 2144 
Q 1053 2284 737 2584 
Q 422 2884 422 3419 
Q 422 4038 858 4394 
Q 1294 4750 2059 4750 
Q 2388 4750 2728 4690 
Q 3069 4631 3425 4513 
z
" transform="scale(0.015625)"/>
      </defs>
      <use xlink:href="#DejaVuSans-55"/>
      <use xlink:href="#DejaVuSans-70" transform="translate(73.193359 0)"/>
      <use xlink:href="#DejaVuSans-70" transform="translate(136.669922 0)"/>
      <use xlink:href="#DejaVuSans-65" transform="translate(200.146484 0)"/>
      <use xlink:href="#DejaVuSans-72" transform="translate(261.669922 0)"/>
      <use xlink:href="#DejaVuSans-20" transform="translate(302.783203 0)"/>
      <use xlink:href="#DejaVuSans-53" transform="translate(334.570312 0)"/>
      <use xlink:href="#DejaVuSans-75" transform="translate(398.046875 0)"/>
      <use xlink:href="#DejaVuSans-72" transform="translate(461.425781 0)"/>
      <use xlink:href="#DejaVuSans-66" transform="translate(502.539062 0)"/>
      <use xlink:href="#DejaVuSans-61" transform="translate(537.744141 0)"/>
      <use xlink:href="#DejaVuSans-63" transform="translate(599.023438 0)"/>
      <use xlink:href="#DejaVuSans-65" transform="translate(654.003906 0)"/>
     </g>
    </g>
    <g id="line2d_34">
     <path d="M 508.890625 51.616562 
L 518.890625 51.616562 
L 528.890625 51.616562 
" style="fill: none; stroke: #ff0000; stroke-width: 1.5; stroke-linecap: square"/>
     <g>
      <use xlink:href="#m26ece978ea" x="518.890625" y="51.616562" style="fill: #ff0000; stroke: #ff0000"/>
     </g>
    </g>
    <g id="text_20">
     <!-- Lower Surface -->
     <g transform="translate(536.890625 55.116562) scale(0.1 -0.1)">
      <defs>
       <path id="DejaVuSans-4c" d="M 628 4666 
L 1259 4666 
L 1259 531 
L 3531 531 
L 3531 0 
L 628 0 
L 628 4666 
z
" transform="scale(0.015625)"/>
       <path id="DejaVuSans-77" d="M 269 3500 
L 844 3500 
L 1563 769 
L 2278 3500 
L 2956 3500 
L 3675 769 
L 4391 3500 
L 4966 3500 
L 4050 0 
L 3372 0 
L 2619 2869 
L 1863 0 
L 1184 0 
L 269 3500 
z
" transform="scale(0.015625)"/>
      </defs>
      <use xlink:href="#DejaVuSans-4c"/>
      <use xlink:href="#DejaVuSans-6f" transform="translate(53.962891 0)"/>
      <use xlink:href="#DejaVuSans-77" transform="translate(115.144531 0)"/>
      <use xlink:href="#DejaVuSans-65" transform="translate(196.931641 0)"/>
      <use xlink:href="#DejaVuSans-72" transform="translate(258.455078 0)"/>
      <use xlink:href="#DejaVuSans-20" transform="translate(299.568359 0)"/>
      <use xlink:href="#DejaVuSans-53" transform="translate(331.355469 0)"/>
      <use xlink:href="#DejaVuSans-75" transform="translate(394.832031 0)"/>
      <use xlink:href="#DejaVuSans-72" transform="translate(458.210938 0)"/>
      <use xlink:href="#DejaVuSans-66" transform="translate(499.324219 0)"/>
      <use xlink:href="#DejaVuSans-61" transform="translate(534.529297 0)"/>
      <use xlink:href="#DejaVuSans-63" transform="translate(595.808594 0)"/>
      <use xlink:href="#DejaVuSans-65" transform="translate(650.789062 0)"/>
     </g>
    </g>
   </g>
  </g>
 </g>
 <defs>
  <clipPath id="p0a2f3f7af5">
   <rect x="59.445312" y="23.84" width="558" height="332.64"/>
  </clipPath>
 </defs>
</svg>
